<?xml version="1.0" encoding="UTF-8"?>
<svg width="500" height="500" viewBox="0 0 500 500" xmlns="http://www.w3.org/2000/svg">
  <g fill="#FFFFFF">
    <path d="M250 0C111.93 0 0 111.93 0 250s111.93 250 250 250 250-111.93 250-250S388.07 0 250 0zm0 450c-110.46 0-200-89.54-200-200S139.54 50 250 50s200 89.54 200 200-89.54 200-200 200z"/>
    <path d="M250 100c-82.84 0-150 67.16-150 150s67.16 150 150 150 150-67.16 150-150-67.16-150-150-150zm0 250c-55.23 0-100-44.77-100-100s44.77-100 100-100 100 44.77 100 100-44.77 100-100 100z"/>
    <circle cx="250" cy="250" r="50"/>
    <path d="M250 150c-55.23 0-100 44.77-100 100s44.77 100 100 100 100-44.77 100-100-44.77-100-100-100zm0 150c-27.61 0-50-22.39-50-50s22.39-50 50-50 50 22.39 50 50-22.39 50-50 50z"/>
  </g>
</svg>
